<svg xmlns="http://www.w3.org/2000/svg" viewBox="0 0 24 24" fill="none" stroke="#ffffff" stroke-width="2" stroke-linecap="round" stroke-linejoin="round">
  <path d="M20.42 4.58a5.4 5.4 0 0 0-7.65 0l-.77.78-.77-.78a5.4 5.4 0 0 0-7.65 0C1.46 6.7 1.33 10.28 4 13l8 8 8-8c2.67-2.72 2.54-6.3.42-8.42z"></path>
  <path d="M12 5.5v.5"></path>
  <path d="M7 5.5a3.5 3.5 0 0 0-3 1.5"></path>
  <path d="M17 5.5a3.5 3.5 0 0 1 3 1.5"></path>
  <path d="M12 6a2 2 0 1 0 0-4 2 2 0 0 0 0 4z"></path>
  <path d="M6 9a2 2 0 1 0 0-4 2 2 0 0 0 0 4z"></path>
  <path d="M18 9a2 2 0 1 0 0-4 2 2 0 0 0 0 4z"></path>
</svg> 